<svg xmlns="http://www.w3.org/2000/svg" version="1.1" xmlns:xlink="http://www.w3.org/1999/xlink" xmlns:svgjs="http://svgjs.dev/svgjs" width="1440" height="800" preserveAspectRatio="none" viewBox="0 0 1440 800"><g mask="url(&quot;#SvgjsMask1439&quot;)" fill="none"><rect width="1440" height="800" x="0" y="0" fill="url(&quot;#SvgjsLinearGradient1440&quot;)"></rect><path d="M-65.14 553.91L-65.14 553.91" stroke="#132e65" stroke-width="1.5"></path><path d="M-65.14 553.91L-49.59 642.37" stroke="#132e65" stroke-width="1.5"></path><path d="M-65.14 553.91L60.62 532.22" stroke="#132e65" stroke-width="1.5"></path><path d="M-49.59 642.37L-49.59 642.37" stroke="#132e65" stroke-width="1.5"></path><path d="M-49.59 642.37L104.49 654.45" stroke="#132e65" stroke-width="1.5"></path><path d="M-109.18 822.93L-109.18 822.93" stroke="#132e65" stroke-width="1.5"></path><path d="M-109.18 822.93L-37.99 945.18" stroke="#132e65" stroke-width="1.5"></path><path d="M-109.18 822.93L-49.59 642.37" stroke="#132e65" stroke-width="1.5"></path><path d="M-37.99 945.18L-37.99 945.18" stroke="#132e65" stroke-width="1.5"></path><path d="M-37.99 945.18L53 998.08" stroke="#132e65" stroke-width="1.5"></path><path d="M-37.99 945.18L91.95 851.81" stroke="#132e65" stroke-width="1.5"></path><path d="M60.62 532.22L60.62 532.22" stroke="#132e65" stroke-width="1.5"></path><path d="M60.62 532.22L104.49 654.45" stroke="#132e65" stroke-width="1.5"></path><path d="M60.62 532.22L-49.59 642.37" stroke="#132e65" stroke-width="1.5"></path><path d="M60.62 532.22L231.61 693.14" stroke="#132e65" stroke-width="1.5"></path><path d="M104.49 654.45L104.49 654.45" stroke="#132e65" stroke-width="1.5"></path><path d="M104.49 654.45L231.61 693.14" stroke="#132e65" stroke-width="1.5"></path><path d="M104.49 654.45L-65.14 553.91" stroke="#132e65" stroke-width="1.5"></path><path d="M91.95 851.81L91.95 851.81" stroke="#132e65" stroke-width="1.5"></path><path d="M91.95 851.81L196.12 832.18" stroke="#132e65" stroke-width="1.5"></path><path d="M91.95 851.81L53 998.08" stroke="#132e65" stroke-width="1.5"></path><path d="M91.95 851.81L234.21 952.35" stroke="#132e65" stroke-width="1.5"></path><path d="M91.95 851.81L104.49 654.45" stroke="#132e65" stroke-width="1.5"></path><path d="M91.95 851.81L-109.18 822.93" stroke="#132e65" stroke-width="1.5"></path><path d="M53 998.08L53 998.08" stroke="#132e65" stroke-width="1.5"></path><path d="M53 998.08L234.21 952.35" stroke="#132e65" stroke-width="1.5"></path><path d="M231.61 693.14L231.61 693.14" stroke="#132e65" stroke-width="1.5"></path><path d="M231.61 693.14L196.12 832.18" stroke="#132e65" stroke-width="1.5"></path><path d="M231.61 693.14L381.67 685.22" stroke="#132e65" stroke-width="1.5"></path><path d="M231.61 693.14L397.2 788.21" stroke="#132e65" stroke-width="1.5"></path><path d="M231.61 693.14L353.86 524.95" stroke="#132e65" stroke-width="1.5"></path><path d="M196.12 832.18L196.12 832.18" stroke="#132e65" stroke-width="1.5"></path><path d="M196.12 832.18L234.21 952.35" stroke="#132e65" stroke-width="1.5"></path><path d="M234.21 952.35L234.21 952.35" stroke="#132e65" stroke-width="1.5"></path><path d="M234.21 952.35L364.76 968.14" stroke="#132e65" stroke-width="1.5"></path><path d="M234.21 952.35L397.2 788.21" stroke="#132e65" stroke-width="1.5"></path><path d="M234.21 952.35L231.61 693.14" stroke="#132e65" stroke-width="1.5"></path><path d="M353.86 524.95L353.86 524.95" stroke="#132e65" stroke-width="1.5"></path><path d="M353.86 524.95L489.35 499.23" stroke="#132e65" stroke-width="1.5"></path><path d="M353.86 524.95L381.67 685.22" stroke="#132e65" stroke-width="1.5"></path><path d="M381.67 685.22L381.67 685.22" stroke="#132e65" stroke-width="1.5"></path><path d="M381.67 685.22L397.2 788.21" stroke="#132e65" stroke-width="1.5"></path><path d="M381.67 685.22L538.41 698.52" stroke="#132e65" stroke-width="1.5"></path><path d="M397.2 788.21L397.2 788.21" stroke="#132e65" stroke-width="1.5"></path><path d="M397.2 788.21L487.56 837.02" stroke="#132e65" stroke-width="1.5"></path><path d="M397.2 788.21L538.41 698.52" stroke="#132e65" stroke-width="1.5"></path><path d="M397.2 788.21L364.76 968.14" stroke="#132e65" stroke-width="1.5"></path><path d="M364.76 968.14L364.76 968.14" stroke="#132e65" stroke-width="1.5"></path><path d="M364.76 968.14L516.82 978.7" stroke="#132e65" stroke-width="1.5"></path><path d="M364.76 968.14L487.56 837.02" stroke="#132e65" stroke-width="1.5"></path><path d="M364.76 968.14L196.12 832.18" stroke="#132e65" stroke-width="1.5"></path><path d="M548.8 371.43L548.8 371.43" stroke="#132e65" stroke-width="1.5"></path><path d="M548.8 371.43L489.35 499.23" stroke="#132e65" stroke-width="1.5"></path><path d="M548.8 371.43L684.84 409.16" stroke="#132e65" stroke-width="1.5"></path><path d="M548.8 371.43L672.69 532.04" stroke="#132e65" stroke-width="1.5"></path><path d="M548.8 371.43L353.86 524.95" stroke="#132e65" stroke-width="1.5"></path><path d="M548.8 371.43L831.64 389.77" stroke="#132e65" stroke-width="1.5"></path><path d="M489.35 499.23L489.35 499.23" stroke="#132e65" stroke-width="1.5"></path><path d="M489.35 499.23L672.69 532.04" stroke="#132e65" stroke-width="1.5"></path><path d="M489.35 499.23L538.41 698.52" stroke="#132e65" stroke-width="1.5"></path><path d="M538.41 698.52L538.41 698.52" stroke="#132e65" stroke-width="1.5"></path><path d="M538.41 698.52L487.56 837.02" stroke="#132e65" stroke-width="1.5"></path><path d="M538.41 698.52L650.55 837.54" stroke="#132e65" stroke-width="1.5"></path><path d="M487.56 837.02L487.56 837.02" stroke="#132e65" stroke-width="1.5"></path><path d="M487.56 837.02L516.82 978.7" stroke="#132e65" stroke-width="1.5"></path><path d="M516.82 978.7L516.82 978.7" stroke="#132e65" stroke-width="1.5"></path><path d="M516.82 978.7L654.55 965.64" stroke="#132e65" stroke-width="1.5"></path><path d="M516.82 978.7L650.55 837.54" stroke="#132e65" stroke-width="1.5"></path><path d="M516.82 978.7L397.2 788.21" stroke="#132e65" stroke-width="1.5"></path><path d="M684.84 409.16L684.84 409.16" stroke="#132e65" stroke-width="1.5"></path><path d="M684.84 409.16L672.69 532.04" stroke="#132e65" stroke-width="1.5"></path><path d="M672.69 532.04L672.69 532.04" stroke="#132e65" stroke-width="1.5"></path><path d="M672.69 532.04L812.69 510.2" stroke="#132e65" stroke-width="1.5"></path><path d="M672.69 532.04L824.07 643.17" stroke="#132e65" stroke-width="1.5"></path><path d="M650.55 837.54L650.55 837.54" stroke="#132e65" stroke-width="1.5"></path><path d="M650.55 837.54L654.55 965.64" stroke="#132e65" stroke-width="1.5"></path><path d="M650.55 837.54L808.8 828.59" stroke="#132e65" stroke-width="1.5"></path><path d="M654.55 965.64L654.55 965.64" stroke="#132e65" stroke-width="1.5"></path><path d="M654.55 965.64L789.08 942.39" stroke="#132e65" stroke-width="1.5"></path><path d="M654.55 965.64L808.8 828.59" stroke="#132e65" stroke-width="1.5"></path><path d="M654.55 965.64L487.56 837.02" stroke="#132e65" stroke-width="1.5"></path><path d="M809.42 205.18L809.42 205.18" stroke="#132e65" stroke-width="1.5"></path><path d="M809.42 205.18L993.2 209.69" stroke="#132e65" stroke-width="1.5"></path><path d="M809.42 205.18L831.64 389.77" stroke="#132e65" stroke-width="1.5"></path><path d="M809.42 205.18L684.84 409.16" stroke="#132e65" stroke-width="1.5"></path><path d="M809.42 205.18L964.42 392.85" stroke="#132e65" stroke-width="1.5"></path><path d="M809.42 205.18L1002.33 44.63" stroke="#132e65" stroke-width="1.5"></path><path d="M831.64 389.77L831.64 389.77" stroke="#132e65" stroke-width="1.5"></path><path d="M831.64 389.77L812.69 510.2" stroke="#132e65" stroke-width="1.5"></path><path d="M831.64 389.77L964.42 392.85" stroke="#132e65" stroke-width="1.5"></path><path d="M831.64 389.77L684.84 409.16" stroke="#132e65" stroke-width="1.5"></path><path d="M831.64 389.77L672.69 532.04" stroke="#132e65" stroke-width="1.5"></path><path d="M812.69 510.2L812.69 510.2" stroke="#132e65" stroke-width="1.5"></path><path d="M812.69 510.2L824.07 643.17" stroke="#132e65" stroke-width="1.5"></path><path d="M812.69 510.2L684.84 409.16" stroke="#132e65" stroke-width="1.5"></path><path d="M824.07 643.17L824.07 643.17" stroke="#132e65" stroke-width="1.5"></path><path d="M824.07 643.17L998.33 688.58" stroke="#132e65" stroke-width="1.5"></path><path d="M824.07 643.17L808.8 828.59" stroke="#132e65" stroke-width="1.5"></path><path d="M808.8 828.59L808.8 828.59" stroke="#132e65" stroke-width="1.5"></path><path d="M808.8 828.59L789.08 942.39" stroke="#132e65" stroke-width="1.5"></path><path d="M808.8 828.59L942.56 802.62" stroke="#132e65" stroke-width="1.5"></path><path d="M789.08 942.39L789.08 942.39" stroke="#132e65" stroke-width="1.5"></path><path d="M971.08 -87.1L971.08 -87.1" stroke="#132e65" stroke-width="1.5"></path><path d="M971.08 -87.1L1002.33 44.63" stroke="#132e65" stroke-width="1.5"></path><path d="M971.08 -87.1L1121.37 -91.7" stroke="#132e65" stroke-width="1.5"></path><path d="M971.08 -87.1L1127.2 58.11" stroke="#132e65" stroke-width="1.5"></path><path d="M971.08 -87.1L993.2 209.69" stroke="#132e65" stroke-width="1.5"></path><path d="M1002.33 44.63L1002.33 44.63" stroke="#132e65" stroke-width="1.5"></path><path d="M1002.33 44.63L1127.2 58.11" stroke="#132e65" stroke-width="1.5"></path><path d="M1002.33 44.63L993.2 209.69" stroke="#132e65" stroke-width="1.5"></path><path d="M1002.33 44.63L1121.37 -91.7" stroke="#132e65" stroke-width="1.5"></path><path d="M1002.33 44.63L1151.48 193.25" stroke="#132e65" stroke-width="1.5"></path><path d="M993.2 209.69L993.2 209.69" stroke="#132e65" stroke-width="1.5"></path><path d="M993.2 209.69L1151.48 193.25" stroke="#132e65" stroke-width="1.5"></path><path d="M964.42 392.85L964.42 392.85" stroke="#132e65" stroke-width="1.5"></path><path d="M964.42 392.85L1099.98 364.5" stroke="#132e65" stroke-width="1.5"></path><path d="M964.42 392.85L997.84 546.3" stroke="#132e65" stroke-width="1.5"></path><path d="M964.42 392.85L993.2 209.69" stroke="#132e65" stroke-width="1.5"></path><path d="M964.42 392.85L812.69 510.2" stroke="#132e65" stroke-width="1.5"></path><path d="M964.42 392.85L1136.85 506.46" stroke="#132e65" stroke-width="1.5"></path><path d="M997.84 546.3L997.84 546.3" stroke="#132e65" stroke-width="1.5"></path><path d="M997.84 546.3L998.33 688.58" stroke="#132e65" stroke-width="1.5"></path><path d="M997.84 546.3L1136.85 506.46" stroke="#132e65" stroke-width="1.5"></path><path d="M998.33 688.58L998.33 688.58" stroke="#132e65" stroke-width="1.5"></path><path d="M998.33 688.58L942.56 802.62" stroke="#132e65" stroke-width="1.5"></path><path d="M998.33 688.58L1128.56 691.58" stroke="#132e65" stroke-width="1.5"></path><path d="M942.56 802.62L942.56 802.62" stroke="#132e65" stroke-width="1.5"></path><path d="M942.56 802.62L965.59 978.68" stroke="#132e65" stroke-width="1.5"></path><path d="M965.59 978.68L965.59 978.68" stroke="#132e65" stroke-width="1.5"></path><path d="M965.59 978.68L1133.33 989.53" stroke="#132e65" stroke-width="1.5"></path><path d="M965.59 978.68L789.08 942.39" stroke="#132e65" stroke-width="1.5"></path><path d="M1121.37 -91.7L1121.37 -91.7" stroke="#132e65" stroke-width="1.5"></path><path d="M1121.37 -91.7L1127.2 58.11" stroke="#132e65" stroke-width="1.5"></path><path d="M1121.37 -91.7L1287.21 -61.67" stroke="#132e65" stroke-width="1.5"></path><path d="M1121.37 -91.7L1239.99 70.19" stroke="#132e65" stroke-width="1.5"></path><path d="M1127.2 58.11L1127.2 58.11" stroke="#132e65" stroke-width="1.5"></path><path d="M1127.2 58.11L1239.99 70.19" stroke="#132e65" stroke-width="1.5"></path><path d="M1151.48 193.25L1151.48 193.25" stroke="#132e65" stroke-width="1.5"></path><path d="M1151.48 193.25L1127.2 58.11" stroke="#132e65" stroke-width="1.5"></path><path d="M1151.48 193.25L1290.08 193.55" stroke="#132e65" stroke-width="1.5"></path><path d="M1151.48 193.25L1239.99 70.19" stroke="#132e65" stroke-width="1.5"></path><path d="M1151.48 193.25L1099.98 364.5" stroke="#132e65" stroke-width="1.5"></path><path d="M1099.98 364.5L1099.98 364.5" stroke="#132e65" stroke-width="1.5"></path><path d="M1099.98 364.5L1136.85 506.46" stroke="#132e65" stroke-width="1.5"></path><path d="M1099.98 364.5L1274.01 364.05" stroke="#132e65" stroke-width="1.5"></path><path d="M1136.85 506.46L1136.85 506.46" stroke="#132e65" stroke-width="1.5"></path><path d="M1136.85 506.46L1267.39 559.2" stroke="#132e65" stroke-width="1.5"></path><path d="M1128.56 691.58L1128.56 691.58" stroke="#132e65" stroke-width="1.5"></path><path d="M1128.56 691.58L1134.66 815.82" stroke="#132e65" stroke-width="1.5"></path><path d="M1134.66 815.82L1134.66 815.82" stroke="#132e65" stroke-width="1.5"></path><path d="M1134.66 815.82L1250.25 827.18" stroke="#132e65" stroke-width="1.5"></path><path d="M1134.66 815.82L1133.33 989.53" stroke="#132e65" stroke-width="1.5"></path><path d="M1134.66 815.82L1283.94 710.46" stroke="#132e65" stroke-width="1.5"></path><path d="M1134.66 815.82L998.33 688.58" stroke="#132e65" stroke-width="1.5"></path><path d="M1133.33 989.53L1133.33 989.53" stroke="#132e65" stroke-width="1.5"></path><path d="M1133.33 989.53L1264.69 962.18" stroke="#132e65" stroke-width="1.5"></path><path d="M1133.33 989.53L1250.25 827.18" stroke="#132e65" stroke-width="1.5"></path><path d="M1287.21 -61.67L1287.21 -61.67" stroke="#132e65" stroke-width="1.5"></path><path d="M1287.21 -61.67L1422.18 -56.35" stroke="#132e65" stroke-width="1.5"></path><path d="M1287.21 -61.67L1239.99 70.19" stroke="#132e65" stroke-width="1.5"></path><path d="M1287.21 -61.67L1401.69 59.5" stroke="#132e65" stroke-width="1.5"></path><path d="M1287.21 -61.67L1127.2 58.11" stroke="#132e65" stroke-width="1.5"></path><path d="M1239.99 70.19L1239.99 70.19" stroke="#132e65" stroke-width="1.5"></path><path d="M1239.99 70.19L1290.08 193.55" stroke="#132e65" stroke-width="1.5"></path><path d="M1239.99 70.19L1401.69 59.5" stroke="#132e65" stroke-width="1.5"></path><path d="M1239.99 70.19L1389.38 194.66" stroke="#132e65" stroke-width="1.5"></path><path d="M1290.08 193.55L1290.08 193.55" stroke="#132e65" stroke-width="1.5"></path><path d="M1290.08 193.55L1389.38 194.66" stroke="#132e65" stroke-width="1.5"></path><path d="M1274.01 364.05L1274.01 364.05" stroke="#132e65" stroke-width="1.5"></path><path d="M1274.01 364.05L1290.08 193.55" stroke="#132e65" stroke-width="1.5"></path><path d="M1274.01 364.05L1455.71 358.04" stroke="#132e65" stroke-width="1.5"></path><path d="M1274.01 364.05L1267.39 559.2" stroke="#132e65" stroke-width="1.5"></path><path d="M1267.39 559.2L1267.39 559.2" stroke="#132e65" stroke-width="1.5"></path><path d="M1267.39 559.2L1390.26 648.3" stroke="#132e65" stroke-width="1.5"></path><path d="M1267.39 559.2L1283.94 710.46" stroke="#132e65" stroke-width="1.5"></path><path d="M1267.39 559.2L1430.33 561.15" stroke="#132e65" stroke-width="1.5"></path><path d="M1267.39 559.2L1128.56 691.58" stroke="#132e65" stroke-width="1.5"></path><path d="M1283.94 710.46L1283.94 710.46" stroke="#132e65" stroke-width="1.5"></path><path d="M1283.94 710.46L1250.25 827.18" stroke="#132e65" stroke-width="1.5"></path><path d="M1283.94 710.46L1390.26 648.3" stroke="#132e65" stroke-width="1.5"></path><path d="M1250.25 827.18L1250.25 827.18" stroke="#132e65" stroke-width="1.5"></path><path d="M1250.25 827.18L1264.69 962.18" stroke="#132e65" stroke-width="1.5"></path><path d="M1250.25 827.18L1425.02 846.21" stroke="#132e65" stroke-width="1.5"></path><path d="M1250.25 827.18L1128.56 691.58" stroke="#132e65" stroke-width="1.5"></path><path d="M1250.25 827.18L1394.65 951.8" stroke="#132e65" stroke-width="1.5"></path><path d="M1264.69 962.18L1264.69 962.18" stroke="#132e65" stroke-width="1.5"></path><path d="M1264.69 962.18L1394.65 951.8" stroke="#132e65" stroke-width="1.5"></path><path d="M1422.18 -56.35L1422.18 -56.35" stroke="#132e65" stroke-width="1.5"></path><path d="M1422.18 -56.35L1401.69 59.5" stroke="#132e65" stroke-width="1.5"></path><path d="M1422.18 -56.35L1588.93 -63.26" stroke="#132e65" stroke-width="1.5"></path><path d="M1422.18 -56.35L1239.99 70.19" stroke="#132e65" stroke-width="1.5"></path><path d="M1422.18 -56.35L1600.78 84.26" stroke="#132e65" stroke-width="1.5"></path><path d="M1401.69 59.5L1401.69 59.5" stroke="#132e65" stroke-width="1.5"></path><path d="M1401.69 59.5L1389.38 194.66" stroke="#132e65" stroke-width="1.5"></path><path d="M1389.38 194.66L1389.38 194.66" stroke="#132e65" stroke-width="1.5"></path><path d="M1455.71 358.04L1455.71 358.04" stroke="#132e65" stroke-width="1.5"></path><path d="M1455.71 358.04L1549.86 382.38" stroke="#132e65" stroke-width="1.5"></path><path d="M1455.71 358.04L1585.68 245.79" stroke="#132e65" stroke-width="1.5"></path><path d="M1455.71 358.04L1389.38 194.66" stroke="#132e65" stroke-width="1.5"></path><path d="M1455.71 358.04L1580.43 488.76" stroke="#132e65" stroke-width="1.5"></path><path d="M1455.71 358.04L1430.33 561.15" stroke="#132e65" stroke-width="1.5"></path><path d="M1430.33 561.15L1430.33 561.15" stroke="#132e65" stroke-width="1.5"></path><path d="M1430.33 561.15L1390.26 648.3" stroke="#132e65" stroke-width="1.5"></path><path d="M1430.33 561.15L1580.43 488.76" stroke="#132e65" stroke-width="1.5"></path><path d="M1390.26 648.3L1390.26 648.3" stroke="#132e65" stroke-width="1.5"></path><path d="M1425.02 846.21L1425.02 846.21" stroke="#132e65" stroke-width="1.5"></path><path d="M1425.02 846.21L1394.65 951.8" stroke="#132e65" stroke-width="1.5"></path><path d="M1425.02 846.21L1283.94 710.46" stroke="#132e65" stroke-width="1.5"></path><path d="M1425.02 846.21L1264.69 962.18" stroke="#132e65" stroke-width="1.5"></path><path d="M1394.65 951.8L1394.65 951.8" stroke="#132e65" stroke-width="1.5"></path><path d="M1394.65 951.8L1560.31 1003.22" stroke="#132e65" stroke-width="1.5"></path><path d="M1588.93 -63.26L1588.93 -63.26" stroke="#132e65" stroke-width="1.5"></path><path d="M1588.93 -63.26L1600.78 84.26" stroke="#132e65" stroke-width="1.5"></path><path d="M1600.78 84.26L1600.78 84.26" stroke="#132e65" stroke-width="1.5"></path><path d="M1600.78 84.26L1585.68 245.79" stroke="#132e65" stroke-width="1.5"></path><path d="M1600.78 84.26L1401.69 59.5" stroke="#132e65" stroke-width="1.5"></path><path d="M1600.78 84.26L1389.38 194.66" stroke="#132e65" stroke-width="1.5"></path><path d="M1600.78 84.26L1549.86 382.38" stroke="#132e65" stroke-width="1.5"></path><path d="M1585.68 245.79L1585.68 245.79" stroke="#132e65" stroke-width="1.5"></path><path d="M1585.68 245.79L1549.86 382.38" stroke="#132e65" stroke-width="1.5"></path><path d="M1585.68 245.79L1389.38 194.66" stroke="#132e65" stroke-width="1.5"></path><path d="M1585.68 245.79L1580.43 488.76" stroke="#132e65" stroke-width="1.5"></path><path d="M1585.68 245.79L1401.69 59.5" stroke="#132e65" stroke-width="1.5"></path><path d="M1549.86 382.38L1549.86 382.38" stroke="#132e65" stroke-width="1.5"></path><path d="M1549.86 382.38L1580.43 488.76" stroke="#132e65" stroke-width="1.5"></path><path d="M1580.43 488.76L1580.43 488.76" stroke="#132e65" stroke-width="1.5"></path><path d="M1580.43 488.76L1586.74 684.64" stroke="#132e65" stroke-width="1.5"></path><path d="M1580.43 488.76L1390.26 648.3" stroke="#132e65" stroke-width="1.5"></path><path d="M1586.74 684.64L1586.74 684.64" stroke="#132e65" stroke-width="1.5"></path><path d="M1586.74 684.64L1430.33 561.15" stroke="#132e65" stroke-width="1.5"></path><path d="M1560.31 1003.22L1560.31 1003.22" stroke="#132e65" stroke-width="1.5"></path><path d="M1560.31 1003.22L1425.02 846.21" stroke="#132e65" stroke-width="1.5"></path><path d="M1560.31 1003.22L1264.69 962.18" stroke="#132e65" stroke-width="1.5"></path><path d="M1560.31 1003.22L1586.74 684.64" stroke="#132e65" stroke-width="1.5"></path><circle r="5" cx="-65.14" cy="553.91" fill="#132e65"></circle><circle r="5" cx="-49.59" cy="642.37" fill="#132e65"></circle><circle r="5" cx="-109.18" cy="822.93" fill="#132e65"></circle><circle r="5" cx="-37.99" cy="945.18" fill="#132e65"></circle><circle r="5" cx="60.62" cy="532.22" fill="#132e65"></circle><circle r="5" cx="104.49" cy="654.45" fill="#132e65"></circle><circle r="5" cx="91.95" cy="851.81" fill="#132e65"></circle><circle r="5" cx="53" cy="998.08" fill="#132e65"></circle><circle r="5" cx="231.61" cy="693.14" fill="#132e65"></circle><circle r="5" cx="196.12" cy="832.18" fill="#132e65"></circle><circle r="5" cx="234.21" cy="952.35" fill="#132e65"></circle><circle r="5" cx="353.86" cy="524.95" fill="#132e65"></circle><circle r="5" cx="381.67" cy="685.22" fill="#132e65"></circle><circle r="5" cx="397.2" cy="788.21" fill="#132e65"></circle><circle r="5" cx="364.76" cy="968.14" fill="#132e65"></circle><circle r="5" cx="548.8" cy="371.43" fill="#132e65"></circle><circle r="5" cx="489.35" cy="499.23" fill="#132e65"></circle><circle r="5" cx="538.41" cy="698.52" fill="#132e65"></circle><circle r="5" cx="487.56" cy="837.02" fill="#132e65"></circle><circle r="5" cx="516.82" cy="978.7" fill="#132e65"></circle><circle r="5" cx="684.84" cy="409.16" fill="#132e65"></circle><circle r="5" cx="672.69" cy="532.04" fill="#132e65"></circle><circle r="5" cx="650.55" cy="837.54" fill="#132e65"></circle><circle r="5" cx="654.55" cy="965.64" fill="#132e65"></circle><circle r="5" cx="809.42" cy="205.18" fill="#132e65"></circle><circle r="5" cx="831.64" cy="389.77" fill="#132e65"></circle><circle r="5" cx="812.69" cy="510.2" fill="#132e65"></circle><circle r="5" cx="824.07" cy="643.17" fill="#132e65"></circle><circle r="5" cx="808.8" cy="828.59" fill="#132e65"></circle><circle r="5" cx="789.08" cy="942.39" fill="#132e65"></circle><circle r="5" cx="971.08" cy="-87.1" fill="#132e65"></circle><circle r="5" cx="1002.33" cy="44.63" fill="#132e65"></circle><circle r="5" cx="993.2" cy="209.69" fill="#132e65"></circle><circle r="5" cx="964.42" cy="392.85" fill="#132e65"></circle><circle r="5" cx="997.84" cy="546.3" fill="#132e65"></circle><circle r="5" cx="998.33" cy="688.58" fill="#132e65"></circle><circle r="5" cx="942.56" cy="802.62" fill="#132e65"></circle><circle r="5" cx="965.59" cy="978.68" fill="#132e65"></circle><circle r="5" cx="1121.37" cy="-91.7" fill="#132e65"></circle><circle r="5" cx="1127.2" cy="58.11" fill="#132e65"></circle><circle r="5" cx="1151.48" cy="193.25" fill="#132e65"></circle><circle r="5" cx="1099.98" cy="364.5" fill="#132e65"></circle><circle r="5" cx="1136.85" cy="506.46" fill="#132e65"></circle><circle r="5" cx="1128.56" cy="691.58" fill="#132e65"></circle><circle r="5" cx="1134.66" cy="815.82" fill="#132e65"></circle><circle r="5" cx="1133.33" cy="989.53" fill="#132e65"></circle><circle r="5" cx="1287.21" cy="-61.67" fill="#132e65"></circle><circle r="5" cx="1239.99" cy="70.19" fill="#132e65"></circle><circle r="5" cx="1290.08" cy="193.55" fill="#132e65"></circle><circle r="5" cx="1274.01" cy="364.05" fill="#132e65"></circle><circle r="5" cx="1267.39" cy="559.2" fill="#132e65"></circle><circle r="5" cx="1283.94" cy="710.46" fill="#132e65"></circle><circle r="5" cx="1250.25" cy="827.18" fill="#132e65"></circle><circle r="5" cx="1264.69" cy="962.18" fill="#132e65"></circle><circle r="5" cx="1422.18" cy="-56.35" fill="#132e65"></circle><circle r="5" cx="1401.69" cy="59.5" fill="#132e65"></circle><circle r="5" cx="1389.38" cy="194.66" fill="#132e65"></circle><circle r="5" cx="1455.71" cy="358.04" fill="#132e65"></circle><circle r="5" cx="1430.33" cy="561.15" fill="#132e65"></circle><circle r="5" cx="1390.26" cy="648.3" fill="#132e65"></circle><circle r="5" cx="1425.02" cy="846.21" fill="#132e65"></circle><circle r="5" cx="1394.65" cy="951.8" fill="#132e65"></circle><circle r="5" cx="1588.93" cy="-63.26" fill="#132e65"></circle><circle r="5" cx="1600.78" cy="84.26" fill="#132e65"></circle><circle r="5" cx="1585.68" cy="245.79" fill="#132e65"></circle><circle r="5" cx="1549.86" cy="382.38" fill="#132e65"></circle><circle r="5" cx="1580.43" cy="488.76" fill="#132e65"></circle><circle r="5" cx="1586.74" cy="684.64" fill="#132e65"></circle><circle r="5" cx="1560.31" cy="1003.22" fill="#132e65"></circle><path d="M72.88 650.02L72.88 650.02" stroke="hsl(228.5, 77.2%, 51.5%)" stroke-width="1.5"></path><path d="M72.88 650.02L83.7 800.67" stroke="hsl(228.5, 77.2%, 51.5%)" stroke-width="1.5"></path><path d="M72.88 650.02L-77.03 708.85" stroke="hsl(228.5, 77.2%, 51.5%)" stroke-width="1.5"></path><path d="M72.88 650.02L256.75 709.54" stroke="hsl(228.5, 77.2%, 51.5%)" stroke-width="1.5"></path><path d="M72.88 650.02L192.47 803.67" stroke="hsl(228.5, 77.2%, 51.5%)" stroke-width="1.5"></path><path d="M72.88 650.02L-78.6 830.06" stroke="hsl(228.5, 77.2%, 51.5%)" stroke-width="1.5"></path><path d="M72.88 650.02L345.26 806.18" stroke="hsl(228.5, 77.2%, 51.5%)" stroke-width="1.5"></path><path d="M220.58 990.74L220.58 990.74" stroke="hsl(228.5, 77.2%, 51.5%)" stroke-width="1.5"></path><path d="M220.58 990.74L109.44 977.39" stroke="hsl(228.5, 77.2%, 51.5%)" stroke-width="1.5"></path><path d="M220.58 990.74L192.47 803.67" stroke="hsl(228.5, 77.2%, 51.5%)" stroke-width="1.5"></path><path d="M220.58 990.74L345.26 806.18" stroke="hsl(228.5, 77.2%, 51.5%)" stroke-width="1.5"></path><path d="M220.58 990.74L83.7 800.67" stroke="hsl(228.5, 77.2%, 51.5%)" stroke-width="1.5"></path><path d="M220.58 990.74L256.75 709.54" stroke="hsl(228.5, 77.2%, 51.5%)" stroke-width="1.5"></path><path d="M220.58 990.74L521.27 987.56" stroke="hsl(228.5, 77.2%, 51.5%)" stroke-width="1.5"></path><path d="M522.6 824.57L522.6 824.57" stroke="hsl(228.5, 77.2%, 51.5%)" stroke-width="1.5"></path><path d="M522.6 824.57L521.27 987.56" stroke="hsl(228.5, 77.2%, 51.5%)" stroke-width="1.5"></path><path d="M522.6 824.57L345.26 806.18" stroke="hsl(228.5, 77.2%, 51.5%)" stroke-width="1.5"></path><path d="M522.6 824.57L561.44 648.71" stroke="hsl(228.5, 77.2%, 51.5%)" stroke-width="1.5"></path><path d="M522.6 824.57L411.71 665.8" stroke="hsl(228.5, 77.2%, 51.5%)" stroke-width="1.5"></path><path d="M521.27 987.56L521.27 987.56" stroke="hsl(228.5, 77.2%, 51.5%)" stroke-width="1.5"></path><path d="M521.27 987.56L696.78 947.46" stroke="hsl(228.5, 77.2%, 51.5%)" stroke-width="1.5"></path><path d="M521.27 987.56L345.26 806.18" stroke="hsl(228.5, 77.2%, 51.5%)" stroke-width="1.5"></path><path d="M521.27 987.56L802.39 834.94" stroke="hsl(228.5, 77.2%, 51.5%)" stroke-width="1.5"></path><path d="M983.59 844.02L983.59 844.02" stroke="hsl(228.5, 77.2%, 51.5%)" stroke-width="1.5"></path><path d="M983.59 844.02L983.29 703.41" stroke="hsl(228.5, 77.2%, 51.5%)" stroke-width="1.5"></path><path d="M983.59 844.02L1098.12 942.36" stroke="hsl(228.5, 77.2%, 51.5%)" stroke-width="1.5"></path><path d="M1158.82 -57.23L1158.82 -57.23" stroke="hsl(228.5, 77.2%, 51.5%)" stroke-width="1.5"></path><path d="M1158.82 -57.23L1288.98 -74.26" stroke="hsl(228.5, 77.2%, 51.5%)" stroke-width="1.5"></path><path d="M1158.82 -57.23L1290.57 98.36" stroke="hsl(228.5, 77.2%, 51.5%)" stroke-width="1.5"></path><path d="M1414.17 59.78L1414.17 59.78" stroke="hsl(228.5, 77.2%, 51.5%)" stroke-width="1.5"></path><path d="M1414.17 59.78L1290.57 98.36" stroke="hsl(228.5, 77.2%, 51.5%)" stroke-width="1.5"></path><path d="M1414.17 59.78L1447.77 199.47" stroke="hsl(228.5, 77.2%, 51.5%)" stroke-width="1.5"></path><path d="M1414.17 59.78L1445.6 -83.16" stroke="hsl(228.5, 77.2%, 51.5%)" stroke-width="1.5"></path><path d="M1414.17 59.78L1288.98 -74.26" stroke="hsl(228.5, 77.2%, 51.5%)" stroke-width="1.5"></path><path d="M1414.17 59.78L1260.03 203.22" stroke="hsl(228.5, 77.2%, 51.5%)" stroke-width="1.5"></path><path d="M1447.77 199.47L1447.77 199.47" stroke="hsl(228.5, 77.2%, 51.5%)" stroke-width="1.5"></path><path d="M1447.77 199.47L1599.72 258.02" stroke="hsl(228.5, 77.2%, 51.5%)" stroke-width="1.5"></path><path d="M1447.77 199.47L1290.57 98.36" stroke="hsl(228.5, 77.2%, 51.5%)" stroke-width="1.5"></path><path d="M1447.77 199.47L1260.03 203.22" stroke="hsl(228.5, 77.2%, 51.5%)" stroke-width="1.5"></path><path d="M1447.77 199.47L1461.91 397.53" stroke="hsl(228.5, 77.2%, 51.5%)" stroke-width="1.5"></path><path d="M1447.77 199.47L1599.88 391.21" stroke="hsl(228.5, 77.2%, 51.5%)" stroke-width="1.5"></path><path d="M1461.91 397.53L1461.91 397.53" stroke="hsl(228.5, 77.2%, 51.5%)" stroke-width="1.5"></path><path d="M1461.91 397.53L1398.02 496.59" stroke="hsl(228.5, 77.2%, 51.5%)" stroke-width="1.5"></path><path d="M1461.91 397.53L1599.88 391.21" stroke="hsl(228.5, 77.2%, 51.5%)" stroke-width="1.5"></path><path d="M1461.91 397.53L1296.31 408.11" stroke="hsl(228.5, 77.2%, 51.5%)" stroke-width="1.5"></path><path d="M1461.91 397.53L1599.72 258.02" stroke="hsl(228.5, 77.2%, 51.5%)" stroke-width="1.5"></path><path d="M1424.85 950.75L1424.85 950.75" stroke="hsl(228.5, 77.2%, 51.5%)" stroke-width="1.5"></path><path d="M1424.85 950.75L1389.17 821.2" stroke="hsl(228.5, 77.2%, 51.5%)" stroke-width="1.5"></path><path d="M1424.85 950.75L1550.6 1004.77" stroke="hsl(228.5, 77.2%, 51.5%)" stroke-width="1.5"></path><path d="M1424.85 950.75L1250.05 1006.3" stroke="hsl(228.5, 77.2%, 51.5%)" stroke-width="1.5"></path><path d="M1424.85 950.75L1584.07 836.45" stroke="hsl(228.5, 77.2%, 51.5%)" stroke-width="1.5"></path><path d="M1584.04 552.43L1584.04 552.43" stroke="hsl(228.5, 77.2%, 51.5%)" stroke-width="1.5"></path><path d="M1584.04 552.43L1591.76 658.45" stroke="hsl(228.5, 77.2%, 51.5%)" stroke-width="1.5"></path><path d="M1584.04 552.43L1599.88 391.21" stroke="hsl(228.5, 77.2%, 51.5%)" stroke-width="1.5"></path><path d="M1584.04 552.43L1457.9 683.19" stroke="hsl(228.5, 77.2%, 51.5%)" stroke-width="1.5"></path><path d="M1584.04 552.43L1398.02 496.59" stroke="hsl(228.5, 77.2%, 51.5%)" stroke-width="1.5"></path><path d="M1584.04 552.43L1461.91 397.53" stroke="hsl(228.5, 77.2%, 51.5%)" stroke-width="1.5"></path><path d="M-77.03 708.85L-77.03 708.85" stroke="hsl(228.5, 77.2%, 51.5%)" stroke-width="1.5"></path><path d="M-77.03 708.85L-78.6 830.06" stroke="hsl(228.5, 77.2%, 51.5%)" stroke-width="1.5"></path><path d="M-77.03 708.85L83.7 800.67" stroke="hsl(228.5, 77.2%, 51.5%)" stroke-width="1.5"></path><path d="M-77.03 708.85L192.47 803.67" stroke="hsl(228.5, 77.2%, 51.5%)" stroke-width="1.5"></path><path d="M-78.6 830.06L-78.6 830.06" stroke="hsl(228.5, 77.2%, 51.5%)" stroke-width="1.5"></path><path d="M-78.6 830.06L83.7 800.67" stroke="hsl(228.5, 77.2%, 51.5%)" stroke-width="1.5"></path><path d="M-78.6 830.06L-94.63 999.82" stroke="hsl(228.5, 77.2%, 51.5%)" stroke-width="1.5"></path><path d="M-78.6 830.06L109.44 977.39" stroke="hsl(228.5, 77.2%, 51.5%)" stroke-width="1.5"></path><path d="M-94.63 999.82L-94.63 999.82" stroke="hsl(228.5, 77.2%, 51.5%)" stroke-width="1.5"></path><path d="M-94.63 999.82L109.44 977.39" stroke="hsl(228.5, 77.2%, 51.5%)" stroke-width="1.5"></path><path d="M-94.63 999.82L83.7 800.67" stroke="hsl(228.5, 77.2%, 51.5%)" stroke-width="1.5"></path><path d="M-94.63 999.82L-77.03 708.85" stroke="hsl(228.5, 77.2%, 51.5%)" stroke-width="1.5"></path><path d="M-94.63 999.82L220.58 990.74" stroke="hsl(228.5, 77.2%, 51.5%)" stroke-width="1.5"></path><path d="M83.7 800.67L83.7 800.67" stroke="hsl(228.5, 77.2%, 51.5%)" stroke-width="1.5"></path><path d="M83.7 800.67L192.47 803.67" stroke="hsl(228.5, 77.2%, 51.5%)" stroke-width="1.5"></path><path d="M83.7 800.67L109.44 977.39" stroke="hsl(228.5, 77.2%, 51.5%)" stroke-width="1.5"></path><path d="M109.44 977.39L109.44 977.39" stroke="hsl(228.5, 77.2%, 51.5%)" stroke-width="1.5"></path><path d="M109.44 977.39L192.47 803.67" stroke="hsl(228.5, 77.2%, 51.5%)" stroke-width="1.5"></path><path d="M256.75 709.54L256.75 709.54" stroke="hsl(228.5, 77.2%, 51.5%)" stroke-width="1.5"></path><path d="M256.75 709.54L192.47 803.67" stroke="hsl(228.5, 77.2%, 51.5%)" stroke-width="1.5"></path><path d="M256.75 709.54L345.26 806.18" stroke="hsl(228.5, 77.2%, 51.5%)" stroke-width="1.5"></path><path d="M256.75 709.54L411.71 665.8" stroke="hsl(228.5, 77.2%, 51.5%)" stroke-width="1.5"></path><path d="M256.75 709.54L83.7 800.67" stroke="hsl(228.5, 77.2%, 51.5%)" stroke-width="1.5"></path><path d="M192.47 803.67L192.47 803.67" stroke="hsl(228.5, 77.2%, 51.5%)" stroke-width="1.5"></path><path d="M192.47 803.67L345.26 806.18" stroke="hsl(228.5, 77.2%, 51.5%)" stroke-width="1.5"></path><path d="M411.71 665.8L411.71 665.8" stroke="hsl(228.5, 77.2%, 51.5%)" stroke-width="1.5"></path><path d="M411.71 665.8L561.44 648.71" stroke="hsl(228.5, 77.2%, 51.5%)" stroke-width="1.5"></path><path d="M411.71 665.8L345.26 806.18" stroke="hsl(228.5, 77.2%, 51.5%)" stroke-width="1.5"></path><path d="M411.71 665.8L192.47 803.67" stroke="hsl(228.5, 77.2%, 51.5%)" stroke-width="1.5"></path><path d="M345.26 806.18L345.26 806.18" stroke="hsl(228.5, 77.2%, 51.5%)" stroke-width="1.5"></path><path d="M561.44 648.71L561.44 648.71" stroke="hsl(228.5, 77.2%, 51.5%)" stroke-width="1.5"></path><path d="M561.44 648.71L674.67 664.64" stroke="hsl(228.5, 77.2%, 51.5%)" stroke-width="1.5"></path><path d="M561.44 648.71L699.66 548.35" stroke="hsl(228.5, 77.2%, 51.5%)" stroke-width="1.5"></path><path d="M561.44 648.71L794.3 651.33" stroke="hsl(228.5, 77.2%, 51.5%)" stroke-width="1.5"></path><path d="M699.66 548.35L699.66 548.35" stroke="hsl(228.5, 77.2%, 51.5%)" stroke-width="1.5"></path><path d="M699.66 548.35L787.53 491.31" stroke="hsl(228.5, 77.2%, 51.5%)" stroke-width="1.5"></path><path d="M699.66 548.35L674.67 664.64" stroke="hsl(228.5, 77.2%, 51.5%)" stroke-width="1.5"></path><path d="M699.66 548.35L794.3 651.33" stroke="hsl(228.5, 77.2%, 51.5%)" stroke-width="1.5"></path><path d="M674.67 664.64L674.67 664.64" stroke="hsl(228.5, 77.2%, 51.5%)" stroke-width="1.5"></path><path d="M696.78 947.46L696.78 947.46" stroke="hsl(228.5, 77.2%, 51.5%)" stroke-width="1.5"></path><path d="M696.78 947.46L802.39 834.94" stroke="hsl(228.5, 77.2%, 51.5%)" stroke-width="1.5"></path><path d="M696.78 947.46L861.71 978.76" stroke="hsl(228.5, 77.2%, 51.5%)" stroke-width="1.5"></path><path d="M787.53 491.31L787.53 491.31" stroke="hsl(228.5, 77.2%, 51.5%)" stroke-width="1.5"></path><path d="M787.53 491.31L794.3 651.33" stroke="hsl(228.5, 77.2%, 51.5%)" stroke-width="1.5"></path><path d="M787.53 491.31L674.67 664.64" stroke="hsl(228.5, 77.2%, 51.5%)" stroke-width="1.5"></path><path d="M787.53 491.31L990.14 410.91" stroke="hsl(228.5, 77.2%, 51.5%)" stroke-width="1.5"></path><path d="M787.53 491.31L561.44 648.71" stroke="hsl(228.5, 77.2%, 51.5%)" stroke-width="1.5"></path><path d="M787.53 491.31L983.29 703.41" stroke="hsl(228.5, 77.2%, 51.5%)" stroke-width="1.5"></path><path d="M794.3 651.33L794.3 651.33" stroke="hsl(228.5, 77.2%, 51.5%)" stroke-width="1.5"></path><path d="M794.3 651.33L674.67 664.64" stroke="hsl(228.5, 77.2%, 51.5%)" stroke-width="1.5"></path><path d="M794.3 651.33L802.39 834.94" stroke="hsl(228.5, 77.2%, 51.5%)" stroke-width="1.5"></path><path d="M802.39 834.94L802.39 834.94" stroke="hsl(228.5, 77.2%, 51.5%)" stroke-width="1.5"></path><path d="M802.39 834.94L861.71 978.76" stroke="hsl(228.5, 77.2%, 51.5%)" stroke-width="1.5"></path><path d="M802.39 834.94L983.59 844.02" stroke="hsl(228.5, 77.2%, 51.5%)" stroke-width="1.5"></path><path d="M802.39 834.94L674.67 664.64" stroke="hsl(228.5, 77.2%, 51.5%)" stroke-width="1.5"></path><path d="M802.39 834.94L983.29 703.41" stroke="hsl(228.5, 77.2%, 51.5%)" stroke-width="1.5"></path><path d="M861.71 978.76L861.71 978.76" stroke="hsl(228.5, 77.2%, 51.5%)" stroke-width="1.5"></path><path d="M861.71 978.76L981.02 1003.56" stroke="hsl(228.5, 77.2%, 51.5%)" stroke-width="1.5"></path><path d="M861.71 978.76L983.59 844.02" stroke="hsl(228.5, 77.2%, 51.5%)" stroke-width="1.5"></path><path d="M861.71 978.76L1098.12 942.36" stroke="hsl(228.5, 77.2%, 51.5%)" stroke-width="1.5"></path><path d="M990.14 410.91L990.14 410.91" stroke="hsl(228.5, 77.2%, 51.5%)" stroke-width="1.5"></path><path d="M990.14 410.91L1125.56 352.56" stroke="hsl(228.5, 77.2%, 51.5%)" stroke-width="1.5"></path><path d="M990.14 410.91L1114.9 535.98" stroke="hsl(228.5, 77.2%, 51.5%)" stroke-width="1.5"></path><path d="M983.29 703.41L983.29 703.41" stroke="hsl(228.5, 77.2%, 51.5%)" stroke-width="1.5"></path><path d="M983.29 703.41L1102.7 687.35" stroke="hsl(228.5, 77.2%, 51.5%)" stroke-width="1.5"></path><path d="M983.29 703.41L1154.96 792.1" stroke="hsl(228.5, 77.2%, 51.5%)" stroke-width="1.5"></path><path d="M983.29 703.41L794.3 651.33" stroke="hsl(228.5, 77.2%, 51.5%)" stroke-width="1.5"></path><path d="M981.02 1003.56L981.02 1003.56" stroke="hsl(228.5, 77.2%, 51.5%)" stroke-width="1.5"></path><path d="M981.02 1003.56L1098.12 942.36" stroke="hsl(228.5, 77.2%, 51.5%)" stroke-width="1.5"></path><path d="M1134 198.5L1134 198.5" stroke="hsl(228.5, 77.2%, 51.5%)" stroke-width="1.5"></path><path d="M1134 198.5L1260.03 203.22" stroke="hsl(228.5, 77.2%, 51.5%)" stroke-width="1.5"></path><path d="M1134 198.5L1125.56 352.56" stroke="hsl(228.5, 77.2%, 51.5%)" stroke-width="1.5"></path><path d="M1134 198.5L1290.57 98.36" stroke="hsl(228.5, 77.2%, 51.5%)" stroke-width="1.5"></path><path d="M1134 198.5L990.14 410.91" stroke="hsl(228.5, 77.2%, 51.5%)" stroke-width="1.5"></path><path d="M1134 198.5L1158.82 -57.23" stroke="hsl(228.5, 77.2%, 51.5%)" stroke-width="1.5"></path><path d="M1134 198.5L1296.31 408.11" stroke="hsl(228.5, 77.2%, 51.5%)" stroke-width="1.5"></path><path d="M1125.56 352.56L1125.56 352.56" stroke="hsl(228.5, 77.2%, 51.5%)" stroke-width="1.5"></path><path d="M1125.56 352.56L1296.31 408.11" stroke="hsl(228.5, 77.2%, 51.5%)" stroke-width="1.5"></path><path d="M1125.56 352.56L1114.9 535.98" stroke="hsl(228.5, 77.2%, 51.5%)" stroke-width="1.5"></path><path d="M1114.9 535.98L1114.9 535.98" stroke="hsl(228.5, 77.2%, 51.5%)" stroke-width="1.5"></path><path d="M1114.9 535.98L1102.7 687.35" stroke="hsl(228.5, 77.2%, 51.5%)" stroke-width="1.5"></path><path d="M1102.7 687.35L1102.7 687.35" stroke="hsl(228.5, 77.2%, 51.5%)" stroke-width="1.5"></path><path d="M1102.7 687.35L1154.96 792.1" stroke="hsl(228.5, 77.2%, 51.5%)" stroke-width="1.5"></path><path d="M1102.7 687.35L1242.62 796.97" stroke="hsl(228.5, 77.2%, 51.5%)" stroke-width="1.5"></path><path d="M1102.7 687.35L1296.75 710.26" stroke="hsl(228.5, 77.2%, 51.5%)" stroke-width="1.5"></path><path d="M1154.96 792.1L1154.96 792.1" stroke="hsl(228.5, 77.2%, 51.5%)" stroke-width="1.5"></path><path d="M1154.96 792.1L1242.62 796.97" stroke="hsl(228.5, 77.2%, 51.5%)" stroke-width="1.5"></path><path d="M1154.96 792.1L1098.12 942.36" stroke="hsl(228.5, 77.2%, 51.5%)" stroke-width="1.5"></path><path d="M1154.96 792.1L1296.75 710.26" stroke="hsl(228.5, 77.2%, 51.5%)" stroke-width="1.5"></path><path d="M1098.12 942.36L1098.12 942.36" stroke="hsl(228.5, 77.2%, 51.5%)" stroke-width="1.5"></path><path d="M1288.98 -74.26L1288.98 -74.26" stroke="hsl(228.5, 77.2%, 51.5%)" stroke-width="1.5"></path><path d="M1288.98 -74.26L1445.6 -83.16" stroke="hsl(228.5, 77.2%, 51.5%)" stroke-width="1.5"></path><path d="M1290.57 98.36L1290.57 98.36" stroke="hsl(228.5, 77.2%, 51.5%)" stroke-width="1.5"></path><path d="M1290.57 98.36L1260.03 203.22" stroke="hsl(228.5, 77.2%, 51.5%)" stroke-width="1.5"></path><path d="M1290.57 98.36L1288.98 -74.26" stroke="hsl(228.5, 77.2%, 51.5%)" stroke-width="1.5"></path><path d="M1260.03 203.22L1260.03 203.22" stroke="hsl(228.5, 77.2%, 51.5%)" stroke-width="1.5"></path><path d="M1260.03 203.22L1125.56 352.56" stroke="hsl(228.5, 77.2%, 51.5%)" stroke-width="1.5"></path><path d="M1296.31 408.11L1296.31 408.11" stroke="hsl(228.5, 77.2%, 51.5%)" stroke-width="1.5"></path><path d="M1296.31 408.11L1306.77 527.99" stroke="hsl(228.5, 77.2%, 51.5%)" stroke-width="1.5"></path><path d="M1296.31 408.11L1398.02 496.59" stroke="hsl(228.5, 77.2%, 51.5%)" stroke-width="1.5"></path><path d="M1296.31 408.11L1260.03 203.22" stroke="hsl(228.5, 77.2%, 51.5%)" stroke-width="1.5"></path><path d="M1296.31 408.11L1114.9 535.98" stroke="hsl(228.5, 77.2%, 51.5%)" stroke-width="1.5"></path><path d="M1306.77 527.99L1306.77 527.99" stroke="hsl(228.5, 77.2%, 51.5%)" stroke-width="1.5"></path><path d="M1306.77 527.99L1398.02 496.59" stroke="hsl(228.5, 77.2%, 51.5%)" stroke-width="1.5"></path><path d="M1306.77 527.99L1296.75 710.26" stroke="hsl(228.5, 77.2%, 51.5%)" stroke-width="1.5"></path><path d="M1306.77 527.99L1114.9 535.98" stroke="hsl(228.5, 77.2%, 51.5%)" stroke-width="1.5"></path><path d="M1296.75 710.26L1296.75 710.26" stroke="hsl(228.5, 77.2%, 51.5%)" stroke-width="1.5"></path><path d="M1296.75 710.26L1242.62 796.97" stroke="hsl(228.5, 77.2%, 51.5%)" stroke-width="1.5"></path><path d="M1242.62 796.97L1242.62 796.97" stroke="hsl(228.5, 77.2%, 51.5%)" stroke-width="1.5"></path><path d="M1242.62 796.97L1389.17 821.2" stroke="hsl(228.5, 77.2%, 51.5%)" stroke-width="1.5"></path><path d="M1250.05 1006.3L1250.05 1006.3" stroke="hsl(228.5, 77.2%, 51.5%)" stroke-width="1.5"></path><path d="M1250.05 1006.3L1098.12 942.36" stroke="hsl(228.5, 77.2%, 51.5%)" stroke-width="1.5"></path><path d="M1250.05 1006.3L1242.62 796.97" stroke="hsl(228.5, 77.2%, 51.5%)" stroke-width="1.5"></path><path d="M1250.05 1006.3L1389.17 821.2" stroke="hsl(228.5, 77.2%, 51.5%)" stroke-width="1.5"></path><path d="M1250.05 1006.3L1154.96 792.1" stroke="hsl(228.5, 77.2%, 51.5%)" stroke-width="1.5"></path><path d="M1250.05 1006.3L981.02 1003.56" stroke="hsl(228.5, 77.2%, 51.5%)" stroke-width="1.5"></path><path d="M1445.6 -83.16L1445.6 -83.16" stroke="hsl(228.5, 77.2%, 51.5%)" stroke-width="1.5"></path><path d="M1445.6 -83.16L1290.57 98.36" stroke="hsl(228.5, 77.2%, 51.5%)" stroke-width="1.5"></path><path d="M1398.02 496.59L1398.02 496.59" stroke="hsl(228.5, 77.2%, 51.5%)" stroke-width="1.5"></path><path d="M1398.02 496.59L1457.9 683.19" stroke="hsl(228.5, 77.2%, 51.5%)" stroke-width="1.5"></path><path d="M1457.9 683.19L1457.9 683.19" stroke="hsl(228.5, 77.2%, 51.5%)" stroke-width="1.5"></path><path d="M1457.9 683.19L1591.76 658.45" stroke="hsl(228.5, 77.2%, 51.5%)" stroke-width="1.5"></path><path d="M1457.9 683.19L1389.17 821.2" stroke="hsl(228.5, 77.2%, 51.5%)" stroke-width="1.5"></path><path d="M1457.9 683.19L1296.75 710.26" stroke="hsl(228.5, 77.2%, 51.5%)" stroke-width="1.5"></path><path d="M1457.9 683.19L1584.07 836.45" stroke="hsl(228.5, 77.2%, 51.5%)" stroke-width="1.5"></path><path d="M1389.17 821.2L1389.17 821.2" stroke="hsl(228.5, 77.2%, 51.5%)" stroke-width="1.5"></path><path d="M1389.17 821.2L1296.75 710.26" stroke="hsl(228.5, 77.2%, 51.5%)" stroke-width="1.5"></path><path d="M1389.17 821.2L1584.07 836.45" stroke="hsl(228.5, 77.2%, 51.5%)" stroke-width="1.5"></path><path d="M1599.72 258.02L1599.72 258.02" stroke="hsl(228.5, 77.2%, 51.5%)" stroke-width="1.5"></path><path d="M1599.72 258.02L1599.88 391.21" stroke="hsl(228.5, 77.2%, 51.5%)" stroke-width="1.5"></path><path d="M1599.88 391.21L1599.88 391.21" stroke="hsl(228.5, 77.2%, 51.5%)" stroke-width="1.5"></path><path d="M1591.76 658.45L1591.76 658.45" stroke="hsl(228.5, 77.2%, 51.5%)" stroke-width="1.5"></path><path d="M1591.76 658.45L1584.07 836.45" stroke="hsl(228.5, 77.2%, 51.5%)" stroke-width="1.5"></path><path d="M1591.76 658.45L1398.02 496.59" stroke="hsl(228.5, 77.2%, 51.5%)" stroke-width="1.5"></path><path d="M1591.76 658.45L1389.17 821.2" stroke="hsl(228.5, 77.2%, 51.5%)" stroke-width="1.5"></path><path d="M1584.07 836.45L1584.07 836.45" stroke="hsl(228.5, 77.2%, 51.5%)" stroke-width="1.5"></path><path d="M1584.07 836.45L1550.6 1004.77" stroke="hsl(228.5, 77.2%, 51.5%)" stroke-width="1.5"></path><path d="M1550.6 1004.77L1550.6 1004.77" stroke="hsl(228.5, 77.2%, 51.5%)" stroke-width="1.5"></path><path d="M1550.6 1004.77L1389.17 821.2" stroke="hsl(228.5, 77.2%, 51.5%)" stroke-width="1.5"></path><circle r="25" cx="72.88" cy="650.02" fill="url(&quot;#SvgjsRadialGradient1441&quot;)"></circle><circle r="25" cx="220.58" cy="990.74" fill="url(&quot;#SvgjsRadialGradient1441&quot;)"></circle><circle r="25" cx="522.6" cy="824.57" fill="url(&quot;#SvgjsRadialGradient1441&quot;)"></circle><circle r="25" cx="521.27" cy="987.56" fill="url(&quot;#SvgjsRadialGradient1441&quot;)"></circle><circle r="25" cx="983.59" cy="844.02" fill="url(&quot;#SvgjsRadialGradient1441&quot;)"></circle><circle r="25" cx="1158.82" cy="-57.23" fill="url(&quot;#SvgjsRadialGradient1441&quot;)"></circle><circle r="25" cx="1414.17" cy="59.78" fill="url(&quot;#SvgjsRadialGradient1441&quot;)"></circle><circle r="25" cx="1447.77" cy="199.47" fill="url(&quot;#SvgjsRadialGradient1441&quot;)"></circle><circle r="25" cx="1461.91" cy="397.53" fill="url(&quot;#SvgjsRadialGradient1441&quot;)"></circle><circle r="25" cx="1424.85" cy="950.75" fill="url(&quot;#SvgjsRadialGradient1441&quot;)"></circle><circle r="25" cx="1584.04" cy="552.43" fill="url(&quot;#SvgjsRadialGradient1441&quot;)"></circle><circle r="5" cx="-77.03" cy="708.85" fill="#8b9ad9"></circle><circle r="5" cx="-78.6" cy="830.06" fill="#8b9ad9"></circle><circle r="5" cx="-94.63" cy="999.82" fill="#8b9ad9"></circle><circle r="5" cx="83.7" cy="800.67" fill="#8b9ad9"></circle><circle r="5" cx="109.44" cy="977.39" fill="#8b9ad9"></circle><circle r="5" cx="256.75" cy="709.54" fill="#8b9ad9"></circle><circle r="5" cx="192.47" cy="803.67" fill="#8b9ad9"></circle><circle r="5" cx="411.71" cy="665.8" fill="#8b9ad9"></circle><circle r="5" cx="345.26" cy="806.18" fill="#8b9ad9"></circle><circle r="5" cx="561.44" cy="648.71" fill="#8b9ad9"></circle><circle r="5" cx="699.66" cy="548.35" fill="#8b9ad9"></circle><circle r="5" cx="674.67" cy="664.64" fill="#8b9ad9"></circle><circle r="5" cx="696.78" cy="947.46" fill="#8b9ad9"></circle><circle r="5" cx="787.53" cy="491.31" fill="#8b9ad9"></circle><circle r="5" cx="794.3" cy="651.33" fill="#8b9ad9"></circle><circle r="5" cx="802.39" cy="834.94" fill="#8b9ad9"></circle><circle r="5" cx="861.71" cy="978.76" fill="#8b9ad9"></circle><circle r="5" cx="990.14" cy="410.91" fill="#8b9ad9"></circle><circle r="5" cx="983.29" cy="703.41" fill="#8b9ad9"></circle><circle r="5" cx="981.02" cy="1003.56" fill="#8b9ad9"></circle><circle r="5" cx="1134" cy="198.5" fill="#8b9ad9"></circle><circle r="5" cx="1125.56" cy="352.56" fill="#8b9ad9"></circle><circle r="5" cx="1114.9" cy="535.98" fill="#8b9ad9"></circle><circle r="5" cx="1102.7" cy="687.35" fill="#8b9ad9"></circle><circle r="5" cx="1154.96" cy="792.1" fill="#8b9ad9"></circle><circle r="5" cx="1098.12" cy="942.36" fill="#8b9ad9"></circle><circle r="5" cx="1288.98" cy="-74.26" fill="#8b9ad9"></circle><circle r="5" cx="1290.57" cy="98.36" fill="#8b9ad9"></circle><circle r="5" cx="1260.03" cy="203.22" fill="#8b9ad9"></circle><circle r="5" cx="1296.31" cy="408.11" fill="#8b9ad9"></circle><circle r="5" cx="1306.77" cy="527.99" fill="#8b9ad9"></circle><circle r="5" cx="1296.75" cy="710.26" fill="#8b9ad9"></circle><circle r="5" cx="1242.62" cy="796.97" fill="#8b9ad9"></circle><circle r="5" cx="1250.05" cy="1006.3" fill="#8b9ad9"></circle><circle r="5" cx="1445.6" cy="-83.16" fill="#8b9ad9"></circle><circle r="5" cx="1398.02" cy="496.59" fill="#8b9ad9"></circle><circle r="5" cx="1457.9" cy="683.19" fill="#8b9ad9"></circle><circle r="5" cx="1389.17" cy="821.2" fill="#8b9ad9"></circle><circle r="5" cx="1599.72" cy="258.02" fill="#8b9ad9"></circle><circle r="5" cx="1599.88" cy="391.21" fill="#8b9ad9"></circle><circle r="5" cx="1591.76" cy="658.45" fill="#8b9ad9"></circle><circle r="5" cx="1584.07" cy="836.45" fill="#8b9ad9"></circle><circle r="5" cx="1550.6" cy="1004.77" fill="#8b9ad9"></circle></g><defs><mask id="SvgjsMask1439"><rect width="1440" height="800" fill="#ffffff"></rect></mask><linearGradient x1="11.11%" y1="-20%" x2="88.89%" y2="120%" gradientUnits="userSpaceOnUse" id="SvgjsLinearGradient1440"><stop stop-color="#0e2a47" offset="0"></stop><stop stop-color="#00459e" offset="1"></stop></linearGradient><radialGradient id="SvgjsRadialGradient1441"><stop stop-color="#ffffff" offset="0.1"></stop><stop stop-color="#1735b3" offset="0.2"></stop><stop stop-color="rgba(23, 53, 179, 0)" offset="1"></stop></radialGradient></defs></svg>